<?xml version="1.0"?>
<svg xmlns="http://www.w3.org/2000/svg" xmlns:xlink="http://www.w3.org/1999/xlink" version="1.1" id="Capa_1" x="0px" y="0px" viewBox="0 0 346.043 346.043" style="enable-background:new 0 0 346.043 346.043;" xml:space="preserve" width="512" height="512" class=""><g transform="matrix(-1.83697e-16 1 -1 -1.83697e-16 346.043 0)"><g>
	<polygon style="fill:#6C809A" points="238.237,73.86 335.412,173.125 238.237,272.39 238.237,214.921 104.49,214.921    104.49,131.329 238.237,131.329  " data-original="#00EFD1" class="active-path" data-old_color="#00EFD1"/>
	<g>
		<path style="fill:#000000" d="M238.237,282.839h-4.18c-3.916-1.997-6.35-6.054-6.269-10.449v-47.02H104.49    c-2.796,0.167-5.507-0.995-7.314-3.135c-1.969-1.929-3.095-4.558-3.135-7.314v-83.592c0-5.771,4.678-10.449,10.449-10.449h123.298    V73.86c0.115-4.207,2.52-8.015,6.269-9.927c4.004-1.58,8.566-0.543,11.494,2.612l97.698,99.265c3.725,4.165,3.725,10.464,0,14.629    l-97.698,99.265C243.622,281.673,240.993,282.8,238.237,282.839z M114.939,204.472h123.298c5.771,0,10.449,4.678,10.449,10.449    v31.869l72.098-73.665L248.686,99.46v31.869c0,5.771-4.678,10.449-10.449,10.449H114.939V204.472z" data-original="#083863" class="" data-old_color="#083863"/>
		<path style="fill:#000000" d="M73.143,120.88L73.143,120.88c5.771,0,10.449,4.678,10.449,10.449v83.592    c0,5.771-4.678,10.449-10.449,10.449l0,0c-5.771,0-10.449-4.678-10.449-10.449v-83.592    C62.694,125.558,67.372,120.88,73.143,120.88z" data-original="#083863" class="" data-old_color="#083863"/>
		<path style="fill:#000000" d="M41.796,120.88L41.796,120.88c5.771,0,10.449,4.678,10.449,10.449v83.592    c0,5.771-4.678,10.449-10.449,10.449l0,0c-5.771,0-10.449-4.678-10.449-10.449v-83.592    C31.347,125.558,36.025,120.88,41.796,120.88z" data-original="#083863" class="" data-old_color="#083863"/>
		<path style="fill:#000000" d="M10.449,120.88L10.449,120.88c5.771,0,10.449,4.678,10.449,10.449v83.592    c0,5.771-4.678,10.449-10.449,10.449l0,0C4.678,225.37,0,220.692,0,214.921v-83.592C0,125.558,4.678,120.88,10.449,120.88z" data-original="#083863" class="" data-old_color="#083863"/>
	</g>
</g></g> </svg>
