<?xml version="1.0"?>
<svg xmlns="http://www.w3.org/2000/svg" id="Capa_1" enable-background="new 0 0 512 512" height="512" viewBox="0 0 512 512" width="512"><g><g><path d="m467 60h-15v-15c0-24.814-20.186-45-45-45h-332c-24.814 0-45 20.186-45 45v15h-30v30h30v15c0 13.757 6.337 25.935 16.093 34.197 5.114-27.935 29.515-49.197 58.907-49.197h61c33.091 0 60 26.909 60 60h181c24.814 0 45-20.186 45-45v-15h15c8.276 0 15 6.724 15 15v60c0 8.276-6.724 15-15 15h-181c-24.814 0-45 20.186-45 45v17.763c-17.422 6.213-30 22.707-30 42.237v31c0 20.189-6.443 37.172-13.872 55.302-7.925 19.321-16.128 39.302-16.128 65.698 0 41.353 33.647 75 75 75s75-33.647 75-75c0-26.382-8.203-46.362-16.128-65.698-7.134-17.388-13.872-34.823-13.872-55.302v-31c0-19.53-12.578-36.024-30-42.237v-17.763c0-8.276 6.724-15 15-15h181c24.814 0 45-20.186 45-45v-60c0-24.814-20.186-45-45-45z" data-original="#000000" class="active-path" style="fill:#6C809A" data-old_color="#000000"/><path d="m196 150c0-16.538-13.462-30-30-30h-61c-16.538 0-30 13.462-30 30v60c0 16.538 13.462 30 30 30s30-13.462 30-30v-30h31c16.538 0 30-13.462 30-30z" data-original="#000000" class="active-path" style="fill:#6C809A" data-old_color="#000000"/></g></g> </svg>
