<?xml version="1.0"?>
<svg xmlns="http://www.w3.org/2000/svg" id="Capa_1" enable-background="new 0 0 512 512" height="512" viewBox="0 0 512 512" width="512"><g><g><path d="m166 479.889c36.688 0 49.712 29.88 51.973 32.111h76.055c2.201-2.171 15.339-32.111 51.973-32.111 36.688 0 49.711 29.88 51.973 32.111h83.026c0-17.64 0-459.582 0-482 0 0-51.44 0-67.474 0-15.945-19.411-39.608-30-67.526-30-27.92 0-51.589 10.595-67.534 30.01l-44.932-.01c-15.945-19.415-39.614-30-67.534-30s-51.589 10.585-67.534 30h-67.466v482h83.027c2.201-2.171 15.34-32.111 51.973-32.111zm255-268.889h30v120h-30zm-30 100.395c-13.369-8.067-28.862-12.506-45-12.506s-31.631 4.439-45 12.506v-110.549c10.852-14.001 27.019-21.957 45-21.957s34.148 7.956 45 21.957zm-120 19.605h-30v-120h30zm-30 30h30v121h-30zm30-180h-30v-121h30zm-60 130.395c-13.369-8.067-28.862-12.506-45-12.506s-31.631 4.439-45 12.506v-110.549c10.852-14.001 27.019-21.957 45-21.957s34.148 7.956 45 21.957zm-45 138.494c-16.138 0-31.631 4.439-45 12.506v-111.549c10.852-14.001 27.019-21.957 45-21.957s34.148 7.956 45 21.957v111.549c-13.369-8.067-28.862-12.506-45-12.506zm180 0c-16.138 0-31.631 4.439-45 12.506v-111.549c10.852-14.001 27.019-21.957 45-21.957s34.148 7.956 45 21.957v111.549c-13.369-8.067-28.862-12.506-45-12.506zm105 32.111h-30v-121h30zm0-422.001v121.001h-30v-121.001zm-105-29.999c11.225 0 31.386 2.681 45 19.862v111.534c-13.369-8.067-28.862-12.506-45-12.506s-31.631 4.439-45 12.506v-111.534c13.614-17.181 33.775-19.862 45-19.862zm-180 0c11.225 0 31.386 2.681 45 19.862v111.534c-13.369-8.067-28.862-12.506-45-12.506s-31.631 4.439-45 12.506v-111.534c13.614-17.181 33.775-19.862 45-19.862zm-105 30h30v121h-30zm30 151v120h-30v-120zm-30 150h30v121h-30z" data-original="#000000" class="active-path" style="fill:#6C809A" data-old_color="#000000"/></g></g> </svg>
